{"accessors" : [{"bufferView" : 0, "byteOffset" : 0, "componentType" : 5123, "count" : 7452, "type" : "SCALAR", "max" : [7451], "min" : [0]}, {"bufferView" : 1, "byteOffset" : 0, "componentType" : 5126, "count" : 7452, "type" : "VEC3", "max" : [1.0550479888916016, 5.452664852142334, 1.3917839527130127], "min" : [-2.1139960289001465, 3.1750950813293457, -1.2438050508499146], "name" : "POSITION"}, {"bufferView" : 1, "byteOffset" : 12, "componentType" : 5126, "count" : 7452, "type" : "VEC2", "max" : [1, 0.9943121671676636], "min" : [0, 0], "name" : "TEXCOORD_0"}, {"bufferView" : 1, "byteOffset" : 20, "componentType" : 5126, "count" : 7452, "type" : "VEC3", "max" : [0.7870635390281677, 0.9999986886978149, 0.7870646119117737], "min" : [-0.7870622277259827, -1.0000022649765015, -0.7870646119117737], "name" : "NORMAL"}, {"bufferView" : 0, "byteOffset" : 14904, "componentType" : 5123, "count" : 7452, "type" : "SCALAR", "max" : [7451], "min" : [0]}, {"bufferView" : 2, "byteOffset" : 0, "componentType" : 5126, "count" : 7452, "type" : "VEC3", "max" : [1.0901620388031006, 5.451787948608398, 1.4313559532165527], "min" : [-2.1097259521484375, 3.174217939376831, -1.2435859441757202], "name" : "POSITION"}, {"bufferView" : 2, "byteOffset" : 12, "componentType" : 5126, "count" : 7452, "type" : "VEC2", "max" : [1, 0.9943121671676636], "min" : [0, 0], "name" : "TEXCOORD_0"}, {"bufferView" : 2, "byteOffset" : 20, "componentType" : 5126, "count" : 7452, "type" : "VEC3", "max" : [0.7870635390281677, 0.9999986886978149, 0.7870646119117737], "min" : [-0.7870622277259827, -1.0000022649765015, -0.7870646119117737], "name" : "NORMAL"}], "asset" : {"generator" : "Aspose.3D 23.11.1", "version" : "2.0"}, "buffers" : [{"uri" : "data:application/octet-stream;base64,", "byteLength" : 506748}], "bufferViews" : [{"buffer" : 0, "byteOffset" : 0, "byteLength" : 29808, "target" : 34963}, {"buffer" : 0, "byteOffset" : 29812, "byteLength" : 238464, "byteStride" : 32, "target" : 34962}, {"buffer" : 0, "byteOffset" : 268280, "byteLength" : 238464, "byteStride" : 32, "target" : 34962}], "meshes" : [{"primitives" : [{"attributes" : {"POSITION" : 1, "TEXCOORD_0" : 2, "NORMAL" : 3}, "indices" : 0, "mode" : 4}], "name" : ""}, {"primitives" : [{"attributes" : {"POSITION" : 5, "TEXCOORD_0" : 6, "NORMAL" : 7}, "indices" : 4, "mode" : 4}], "name" : ""}], "nodes" : [{"mesh" : 0, "name" : "Text"}, {"mesh" : 1, "name" : "Text 1"}], "scene" : 0, "scenes" : [{"nodes" : [0, 1]}]}